<svg width="681" height="578" viewBox="0 0 681 578" fill="none" xmlns="http://www.w3.org/2000/svg">
<g clip-path="url(#clip0_330_1109)">
<path d="M639.04 437.59C647.03 422.77 651.41 407.72 651.41 393.65V167.54L278.54 191.29V393.64C278.45 465.53 357.66 535.14 464.95 535.14C487.72 535.14 509.56 531.21 529.74 524.47L580.37 575.24L678.51 477.1L639.04 437.58V437.59ZM510.36 291.72C510.76 333.02 497.32 393.66 464.01 393.66C430.7 393.66 418.33 336.33 418.24 291.05L418.33 232.38H510.62L510.35 291.72H510.36Z" fill="#040000" stroke="#040000" stroke-width="4.33" stroke-linejoin="round"/>
<path d="M505.44 106.67C505.44 106.67 418.65 161.63 340.52 127.96C262.77 91.19 369.08 47.91 369.08 47.91L268.65 4.5L155.26 57.37C154.48 57.74 111.24 76.95 98.79 92.46C88.73 105 70.39 145.44 116.41 173.98L4.5 223.26L150.64 286.24L241.21 244.3C312.4 275.98 406.7 279.16 501.9 236.41L648.75 168.79L505.45 106.66L505.44 106.67Z" fill="white" stroke="#040000" stroke-width="9" stroke-linejoin="round"/>
</g>
<defs>
<clipPath id="clip0_330_1109">
<rect width="680.68" height="577.41" fill="white"/>
</clipPath>
</defs>
</svg>
